; Version : LOCAL
; Date    : Wed Apr 27 21:58:16 2016
; Format  : 3.3 / Absolute / MM / Leading
; Contents: Thru / Drill / Plated
M48
METRIC,TZ
FMAT,2
ICI,OFF
T05C0.3000
T01C0.9000
T04C1.0000
T02C1.2000
T03C2.3000
%
M71
G90
G93X0Y0
T05
X33400Y2400
X29200Y1450
X23700Y2400
X21700
X19750
X17800
X15850
X14000
X12600
X14550Y4900
X24300
X26900
X28850
X30150
X31450
X32750
X33598Y7322
X32100Y5300
X30800
X29500
X27200Y6300
X17150Y7300
X16500Y6700
X15200Y6100
X14050Y5450
X10250Y6200
X1598Y9822
X10250Y9900
X12848Y7822
X15348
X18450Y8400
X19350Y10100
X33598Y11822
X25200Y10350
X23200Y12600
X20150Y11450
X19450Y11850
X18700
X18098Y10572
X15598
X3348Y11572
X1598Y13072
X3348Y14822
X11950Y13150
Y14950
X13950Y13050
X15750
X18700Y13350
X19500
X26650Y13750
X30150Y13450
X34050Y13150
Y14950
X37050Y13150
Y14950
X36850Y17050
X35348Y16572
X23650Y16200
X21700
X20950
X19750Y16400
X17800Y16200
X15850
X13900
X3348Y17322
X1598Y16322
X2850Y18750
X10200Y19800
X11850Y18850
X12300Y20050
X13000Y18950
X13250Y18050
X17800Y20300
X19400Y20250
X21800Y19900
X22800Y19550
X23650Y19900
X34598Y18822
X40098Y18322
X39848Y21822
X36850Y20600
X35348Y22572
X21350Y22050
X20000Y20900
X16650Y21750
X15900Y21800
X12350Y20850
X1598Y20322
X6848Y24572
X8848
X14900Y24950
X16600Y22900
X17050Y23500
X18281Y24464
X19250Y23850
X21720Y24482
X22800Y23250
X24379Y24482
X25750Y23050
X25800Y23800
X26550Y23850
X27700Y24150
X30250Y25050
X30850Y24550
X32100Y24100
X33300Y23250
X39700Y26550
X31750Y25950
X29700Y26050
X27550Y25650
X25950Y27000
X24220Y26120
X23600Y26550
X11700
X3750Y25400
X1150Y26500
Y27600
Y28700
Y29800
X11700Y29550
Y30300
X14250Y29550
X14950
X24750Y29000
X24994Y29900
X25500Y29100
X26850Y29500
X27600Y29400
X29900Y29950
X29950Y28050
X33600Y29400
X35350Y29350
X38800Y28050
X39900Y29650
X38950Y31050
Y31950
X38050Y31050
Y31950
X33650Y31200
X29900Y32450
X29850Y31200
X27700Y31000
X26950Y32950
X26200
X25400
X24600
X23850
X22700
X22000Y31600
X21950Y32950
X21200
X20400
X19600
X18800
X18050
X17400Y31600
X17000Y32950
X16200
X15450Y32200
X14550
X11700Y31000
Y31700
Y32400
X1150Y30900
Y32000
Y33100
Y34200
X11700Y33100
X12150Y34750
X12700Y34050
X13300Y33050
X16200Y34950
X18200
X19000
X20150
X21000
X21850
X23450
X24200
X24950
X26000
X29900Y33700
X33650
X35600Y33400
X36450
X39650Y35450
X34250Y37450
X28600Y37300
X25400Y36850
X21100Y37750
X15800Y35600
X12200Y36950
X3598Y36822
X3550Y35600
X1598Y36822
X7093Y39180
X9800Y39100
Y40050
X12200Y38150
X18000Y38750
X19200
X33598Y38822
X32098Y42072
X9800Y41000
Y41950
Y42900
X7250Y45550
X9800Y43850
Y44750
X13800Y45600
X17950Y44100
X28098Y46822
X26650Y46050
X18000Y48200
X14894Y45816
X12410Y46360
X7848Y49072
X26848Y50322
X28098Y49072
Y51322
X7848Y51572
X18800Y54700
X24850Y55150
X26848Y54822
X28848Y56072
X28600Y57800
X25250Y57400
X20900Y57300
X7598Y58822
X22000Y59600
X28600Y59300
X28848Y60822
X17098Y63322
X14598
X12098
X7598Y62072
X25098Y64072
X28848
X25098Y66322
T01
X7250Y11750
Y14250
Y16250
Y18750
X5000Y47600
X3000
Y49600
X5000
X9900Y50250
X11900
X15200
X17200
X19200
X21200
X23200
X25200
Y52250
X23200
X21200
X19200
X17200
X15200
X11900
X9900
X5000Y51600
X3000
Y53600
Y55600
X5000Y53600
Y55600
X9900Y54250
X11900
X17200Y57210
X15200
X11900Y57250
X9900
X5000Y57600
X3000
Y59600
X5000
X9900Y59250
X11900
X15200Y59210
X17200
Y61210
X15200
X11900Y61250
X9900
X5000Y61600
X3000
X8600Y65250
X10600
X12600
X14600
X16600
X18600
X20600
X22600
Y67250
X20600
X18600
X16600
X14600
X12600
X10600
X8600
T04
X39000Y8510
Y11050
T02
X39800Y48050
X36600
X33100
X39800Y53050
X36600
X33100
X39800Y56050
X36600
X33100
X39800Y61050
X36600
X33100
X32150Y66300
X28650
T03
X4540Y8690
Y21820
T00
M30
